<?xml version="1.0" encoding="UTF-8"?>
<svg version="1.1" xmlns="http://www.w3.org/2000/svg" width="64" height="64">
<path d="M0 0 C3.24106956 1.41724189 5.54183709 3.77888896 8.0546875 6.203125 C9.0716173 7.16803793 10.089845 8.13158486 11.109375 9.09375 C11.86359741 9.81038818 11.86359741 9.81038818 12.63305664 10.54150391 C14.17876518 11.95228319 15.78027349 13.25262855 17.41796875 14.5546875 C19.92702022 16.73369401 21.16838781 18.10394949 22.4921875 21.078125 C22.79769531 21.74070312 23.10320313 22.40328125 23.41796875 23.0859375 C26.14462984 29.7697529 26.33671551 36.98470052 23.5546875 43.703125 C20.32367203 50.02911319 16.85227417 54.65645988 10.10864258 57.35107422 C3.38824814 59.44859259 -4.59121646 59.21121437 -11.12890625 56.6640625 C-18.58721246 52.23158201 -22.86229869 46.93620059 -25.2578125 38.640625 C-26.42669769 32.20619034 -25.42522962 25.78601745 -22.20703125 20.10546875 C-19.19394404 16.12582656 -15.81480755 12.69494849 -12.2578125 9.203125 C-11.58556641 8.53152344 -10.91332031 7.85992187 -10.22070312 7.16796875 C-2.91241912 -0.07499792 -2.91241912 -0.07499792 0 0 Z " fill="#06253E" transform="translate(31.8203125,2.046875)"/>
<path d="M0 0 C3.79464979 1.59446552 6.38448754 4.018842 9.375 6.8125 C12.30674352 9.54840519 15.21694258 12.22811456 18.4375 14.625 C22.76272487 18.633745 25.64679603 24.46796027 26.23828125 30.3828125 C26.48626761 39.54525607 24.06521777 46.76868857 17.84375 53.625 C13.30961172 57.00639126 7.45098119 57 2 57 C2.33 49.41 2.66 41.82 3 34 C1.35 33.67 -0.3 33.34 -2 33 C-2.02693575 30.87506859 -2.04636628 28.75004088 -2.0625 26.625 C-2.07410156 25.44164063 -2.08570312 24.25828125 -2.09765625 23.0390625 C-2 20 -2 20 -1 18 C-0.94116975 14.82684314 -0.97903817 11.67033292 -1.0390625 8.49804688 C-1.07580376 5.37197778 -0.9973129 2.9919387 0 0 Z " fill="#0DD1CD" transform="translate(31,2)"/>
<path d="M0 0 C1.30615482 3.91846446 0.68239068 5.25473246 -1 9 C-2.80512626 11.21412782 -4.83906913 13.1287498 -6.9375 15.0625 C-13.23425829 20.52149626 -13.23425829 20.52149626 -16.22387695 27.9831543 C-16.29487648 30.26843586 -16.26219886 32.52748097 -16.1875 34.8125 C-16.17396484 35.60076172 -16.16042969 36.38902344 -16.14648438 37.20117188 C-16.11133456 39.13441169 -16.05753361 41.06729682 -16 43 C-15.34 43 -14.68 43 -14 43 C-13.54625 43.78375 -13.0925 44.5675 -12.625 45.375 C-10.85789696 48.22955106 -10.11026455 48.93362358 -7 50 C-5.00254318 50.34824901 -3.00266497 50.68307076 -1 51 C-0.90912109 49.53626953 -0.90912109 49.53626953 -0.81640625 48.04296875 C-0.73261719 46.77066406 -0.64882813 45.49835937 -0.5625 44.1875 C-0.48128906 42.92292969 -0.40007813 41.65835938 -0.31640625 40.35546875 C0 37 0 37 1 34 C1.99 34 2.98 34 4 34 C4.02902429 37.27081471 4.04680684 40.5415963 4.0625 43.8125 C4.07087891 44.74126953 4.07925781 45.67003906 4.08789062 46.62695312 C4.09272461 47.9659668 4.09272461 47.9659668 4.09765625 49.33203125 C4.10551147 50.56530151 4.10551147 50.56530151 4.11352539 51.82348633 C4 54 4 54 3 57 C4.2375 56.649375 5.475 56.29875 6.75 55.9375 C9.903292 55.04406727 11.86774164 54.99118706 15 56 C8.55442003 59.07347153 0.98108715 59.15351624 -6 58 C-12.57547076 55.45190827 -17.82411822 51.38119309 -21.1328125 45.08984375 C-24.25922163 37.55547942 -24.628977 30.82977934 -22 23 C-18.95309172 17.62180112 -14.81093947 13.54330894 -10.4375 9.25 C-9.76525391 8.57839844 -9.09300781 7.90679687 -8.40039062 7.21484375 C-5.67687854 4.51567288 -3.20264283 2.13509522 0 0 Z " fill="#1C7C9E" transform="translate(30,2)"/>
<path d="M0 0 C1.53324291 1.31930204 3.06530677 2.63998415 4.59375 3.96484375 C6.4477536 5.53292147 8.31834493 7.0563816 10.21875 8.56640625 C17.58922114 14.49348911 21.93297789 18.79893367 25 28 C25.94518053 37.45180528 23.91646833 44.30223824 18.375 51.9375 C14.70158006 55.98575871 10.26681781 56.57413519 5 57 C3.68 57 2.36 57 1 57 C1.26953125 55.0859375 1.26953125 55.0859375 2 53 C3.94451565 52.27492637 5.8927164 51.55720859 7.86328125 50.90625 C12.18167067 49.07468447 15.11018568 45.84120749 17.12890625 41.6640625 C18.96168368 36.05888667 19.43741749 29.87483498 16.75 24.5 C13.09000188 19.62000251 8.58311692 15.62890675 3.91796875 11.7265625 C2 10 2 10 0 7 C-0.07905064 4.66800612 -0.08798769 2.33167378 0 0 Z " fill="#DAE7E7" transform="translate(32,2)"/>
<path d="M0 0 C2 2 2 2 2.3125 5.75 C2.09942612 11.97400019 -0.35180668 15.61620724 -4.8125 19.8125 C-8.47882721 23.12756233 -9.57638331 23.09606389 -15 24 C-15 17.73 -15 11.46 -15 5 C-11.94010417 4.77213542 -8.88020833 4.54427083 -5.8203125 4.31640625 C-3.05271029 4.16998297 -3.05271029 4.16998297 -1 3 C-0.67 2.01 -0.34 1.02 0 0 Z " fill="#1BE671" transform="translate(49,31)"/>
<path d="M0 0 C0.33 0 0.66 0 1 0 C1 10.56 1 21.12 1 32 C3.97 31.34 6.94 30.68 10 30 C11.66534667 29.66013333 13.33129513 29.32297514 15 29 C15.33 28.01 15.66 27.02 16 26 C15.34 26 14.68 26 14 26 C14 24.02 14 22.04 14 20 C18.0042343 23.49087093 19.62671065 25.64951939 20 31 C15.69565051 34.21978899 11.94079839 34.39937549 6.75 34.25 C6.0178125 34.24484375 5.285625 34.2396875 4.53125 34.234375 C-0.84527726 34.15472274 -0.84527726 34.15472274 -2 33 C-2.0991757 30.85605481 -2.1297015 28.70873268 -2.125 26.5625 C-2.12757812 25.38816406 -2.13015625 24.21382812 -2.1328125 23.00390625 C-2 20 -2 20 -1 18 C-0.94116975 14.82684314 -0.97903817 11.67033292 -1.0390625 8.49804688 C-1.07580376 5.37197778 -0.9973129 2.9919387 0 0 Z " fill="#10D8AD" transform="translate(31,2)"/>
<path d="M0 0 C2 2 2 2 2.3125 5.75 C2.23200938 9.75989658 1.07510554 12.54149077 -1 16 C-2.60031344 12.79937313 -1.03173691 10.27728194 0 7 C-0.886875 7.165 -1.77375 7.33 -2.6875 7.5 C-5.53684596 7.93008996 -8.13320035 8 -11 8 C-12.87824891 9.87824891 -12.39102397 13.03935276 -12.5625 15.5625 C-12.64628906 16.76003906 -12.73007812 17.95757812 -12.81640625 19.19140625 C-12.87699219 20.11824219 -12.93757813 21.04507813 -13 22 C-12.01 22 -11.02 22 -10 22 C-10 21.34 -10 20.68 -10 20 C-8.68 20.33 -7.36 20.66 -6 21 C-9.44069624 23.29379749 -10.72290301 24 -15 24 C-15 17.73 -15 11.46 -15 5 C-11.94010417 4.77213542 -8.88020833 4.54427083 -5.8203125 4.31640625 C-3.05271029 4.16998297 -3.05271029 4.16998297 -1 3 C-0.67 2.01 -0.34 1.02 0 0 Z " fill="#15DF88" transform="translate(49,31)"/>
<path d="M0 0 C0.33 0 0.66 0 1 0 C1.06058594 0.67546875 1.12117188 1.3509375 1.18359375 2.046875 C1.26738281 2.93890625 1.35117187 3.8309375 1.4375 4.75 C1.55931641 6.07257812 1.55931641 6.07257812 1.68359375 7.421875 C1.90923734 9.91264037 1.90923734 9.91264037 2.59375 11.875 C3.21261115 15.11211986 2.57227219 18.01144729 2.0625 21.25 C1.86785156 22.51328125 1.67320313 23.7765625 1.47265625 25.078125 C1.31667969 26.04234375 1.16070312 27.0065625 1 28 C-3.70363714 28.15635359 -6.1107968 27.7453199 -10 25 C-9.34 24.67 -8.68 24.34 -8 24 C-5.96855359 24.93446535 -3.96466413 25.93224776 -2 27 C-2.66 26.01 -3.32 25.02 -4 24 C-4.66894207 18.28448027 -4.02962696 13.37254195 -2 8 C-1.65596692 5.66822025 -1.32050798 3.33512959 -1 1 C-0.67 0.67 -0.34 0.34 0 0 Z " fill="#054563" transform="translate(28,25)"/>
<path d="M0 0 C0.99 0 1.98 0 3 0 C3 6.27 3 12.54 3 19 C-4 19 -4 19 -7 17 C-5.35 17 -3.7 17 -2 17 C-1.93941406 16.02417969 -1.87882812 15.04835938 -1.81640625 14.04296875 C-1.73261719 12.77066406 -1.64882813 11.49835937 -1.5625 10.1875 C-1.48128906 8.92292969 -1.40007813 7.65835938 -1.31640625 6.35546875 C-1 3 -1 3 0 0 Z " fill="#026781" transform="translate(31,36)"/>
<path d="M0 0 C0.33 0 0.66 0 1 0 C1 10.56 1 21.12 1 32 C1.66 32 2.32 32 3 32 C3 32.66 3 33.32 3 34 C1.35 33.67 -0.3 33.34 -2 33 C-2.02693575 30.87506859 -2.04636628 28.75004088 -2.0625 26.625 C-2.07410156 25.44164063 -2.08570312 24.25828125 -2.09765625 23.0390625 C-2 20 -2 20 -1 18 C-0.94116975 14.82684314 -0.97903817 11.67033292 -1.0390625 8.49804688 C-1.07580376 5.37197778 -0.9973129 2.9919387 0 0 Z " fill="#28A0A8" transform="translate(31,2)"/>
<path d="M0 0 C0.99 0 1.98 0 3 0 C1.92075721 3.23772838 1.24856932 3.86999864 -1.3125 5.9375 C-3.43788098 7.66706104 -5.16858276 9.20121168 -6.9375 11.3125 C-10.08480742 13.88756971 -12.98797406 13.7325316 -17 14 C-16.79296875 12.08203125 -16.79296875 12.08203125 -16 10 C-13.92578125 9.19921875 -13.92578125 9.19921875 -11.3125 8.6875 C-6.31346126 7.41631586 -4.16095893 5.61714377 -1.25390625 1.42578125 C-0.84011719 0.95527344 -0.42632812 0.48476563 0 0 Z " fill="#EFFDF7" transform="translate(50,45)"/>
<path d="M0 0 C0.99 0.33 1.98 0.66 3 1 C4.12589491 4.37768474 4.13294275 7.00812072 4.125 10.5625 C4.12757812 11.71878906 4.13015625 12.87507813 4.1328125 14.06640625 C4 17 4 17 3 19 C2.34 19 1.68 19 1 19 C0.7525 19.5775 0.505 20.155 0.25 20.75 C-1.16683317 23.3002997 -2.87627537 25.01785701 -5 27 C-5.66 26.67 -6.32 26.34 -7 26 C-4.75390625 23.90039062 -4.75390625 23.90039062 -2.5078125 21.80078125 C0.83214127 17.81187273 1.25749855 13.95307635 1.1875 8.875 C1.18105469 7.84117188 1.17460938 6.80734375 1.16796875 5.7421875 C1.11257378 2.90833023 1.11257378 2.90833023 0 0 Z " fill="#BDF9DE" transform="translate(49,26)"/>
<path d="M0 0 C0.99 0 1.98 0 3 0 C1.76372623 6.59346009 -1.38064299 10.24477955 -6 15 C-7.32 14.67 -8.64 14.34 -10 14 C-8.87895467 12.68412059 -7.75303035 11.37239647 -6.625 10.0625 C-5.68527344 8.96615234 -5.68527344 8.96615234 -4.7265625 7.84765625 C-3 6 -3 6 -1 5 C-0.34444881 2.47266765 -0.34444881 2.47266765 0 0 Z " fill="#D4D9D9" transform="translate(53,42)"/>
<path d="M0 0 C0.66 0 1.32 0 2 0 C2 5.61 2 11.22 2 17 C2.99 17 3.98 17 5 17 C5 16.34 5 15.68 5 15 C6.32 15.33 7.64 15.66 9 16 C5.55930376 18.29379749 4.27709699 19 0 19 C0 12.73 0 6.46 0 0 Z " fill="#32D096" transform="translate(34,36)"/>
<path d="M0 0 C0 3.63 0 7.26 0 11 C-0.33 11 -0.66 11 -1 11 C-1.33 8.69 -1.66 6.38 -2 4 C-5.63 7.96 -9.26 11.92 -13 16 C-13.66 15.34 -14.32 14.68 -15 14 C-12.69152056 11.66265901 -10.37756659 9.33081534 -8.0625 7 C-7.40314453 6.33226562 -6.74378906 5.66453125 -6.06445312 4.9765625 C-5.43603516 4.34492188 -4.80761719 3.71328125 -4.16015625 3.0625 C-3.57886963 2.47597656 -2.99758301 1.88945312 -2.39868164 1.28515625 C-1 0 -1 0 0 0 Z " fill="#043851" transform="translate(31,9)"/>
<path d="M0 0 C0.33 1.32 0.66 2.64 1 4 C0.34 4 -0.32 4 -1 4 C-0.34 5.65 0.32 7.3 1 9 C0.34 9.66 -0.32 10.32 -1 11 C-1.33 10.34 -1.66 9.68 -2 9 C-2.45375 9.825 -2.9075 10.65 -3.375 11.5 C-3.91125 12.325 -4.4475 13.15 -5 14 C-5.66 14 -6.32 14 -7 14 C-6.43584703 8.07639384 -4.18653966 4.18653966 0 0 Z " fill="#156485" transform="translate(14,17)"/>
<path d="M0 0 C0.33 0 0.66 0 1 0 C0.67 3.96 0.34 7.92 0 12 C-5.65814459 12 -6.75755532 11.99466683 -11 9 C-10.34 8.67 -9.68 8.34 -9 8 C-6.96855359 8.93446535 -4.96466413 9.93224776 -3 11 C-3.061875 10.113125 -3.12375 9.22625 -3.1875 8.3125 C-2.98002096 4.64703692 -2.15087824 2.92519441 0 0 Z " fill="#034568" transform="translate(29,41)"/>
<path d="M0 0 C3 1 3 1 4.6875 4.0625 C5.120625 5.031875 5.55375 6.00125 6 7 C5.34 7 4.68 7 4 7 C4 6.34 4 5.68 4 5 C3.34 5 2.68 5 2 5 C2.66 6.98 3.32 8.96 4 11 C0.83282717 9.41641358 -0.73268318 8.54736301 -2.3125 5.3125 C-2.539375 4.549375 -2.76625 3.78625 -3 3 C-2.01 2.01 -1.02 1.02 0 0 Z " fill="#147398" transform="translate(13,44)"/>
<path d="M0 0 C1.98 1.65 3.96 3.3 6 5 C6 5.33 6 5.66 6 6 C4.35 6 2.7 6 1 6 C1 12.27 1 18.54 1 25 C0.67 25 0.34 25 0 25 C0 16.75 0 8.5 0 0 Z " fill="#19CDCD" transform="translate(32,9)"/>
<path d="M0 0 C0.33 0 0.66 0 1 0 C1.13547465 1.91470844 1.23220869 3.83218481 1.3125 5.75 C1.37050781 6.81734375 1.42851562 7.8846875 1.48828125 8.984375 C1 12 1 12 -1.51953125 14.390625 C-2.33808594 14.92171875 -3.15664063 15.4528125 -4 16 C-3.52546129 13.51986371 -3.04561015 11.04096744 -2.5625 8.5625 C-2.42779297 7.85544922 -2.29308594 7.14839844 -2.15429688 6.41992188 C-1.11328125 1.11328125 -1.11328125 1.11328125 0 0 Z " fill="#04374E" transform="translate(28,25)"/>
<path d="M0 0 C0.66 0.33 1.32 0.66 2 1 C1.50168276 4.68754757 0.89932357 6.60490662 -2 9 C-2.66 7.68 -3.32 6.36 -4 5 C-3.34 5 -2.68 5 -2 5 C-2 3.68 -2 2.36 -2 1 C-1.34 0.67 -0.68 0.34 0 0 Z " fill="#1987AD" transform="translate(17,16)"/>
<path d="M0 0 C2 2 2 2 2.3125 5.75 C2.23200938 9.75989658 1.07510554 12.54149077 -1 16 C-2.55373847 12.89252306 -1.58528628 10.25773473 -1.0625 6.875 C-0.86785156 5.59367187 -0.67320313 4.31234375 -0.47265625 2.9921875 C-0.31667969 2.00476562 -0.16070312 1.01734375 0 0 Z " fill="#35D988" transform="translate(49,31)"/>
<path d="M0 0 C0 0.66 0 1.32 0 2 C-3.30350614 5.11997802 -4.32409833 6 -9 6 C-8.875 4.125 -8.875 4.125 -8 2 C-5.25822503 0.83328724 -2.99432393 0 0 0 Z " fill="#CBF6EE" transform="translate(42,53)"/>
<path d="M0 0 C2.97 0 5.94 0 9 0 C8.67 1.32 8.34 2.64 8 4 C5.69 3.67 3.38 3.34 1 3 C0.67 2.01 0.34 1.02 0 0 Z " fill="#1D9EC2" transform="translate(25,55)"/>
<path d="M0 0 C4.0042343 3.49087093 5.62671065 5.64951939 6 11 C4.5 9.625 4.5 9.625 3 8 C3 7.34 3 6.68 3 6 C2.01 6 1.02 6 0 6 C0 4.02 0 2.04 0 0 Z " fill="#44D7BB" transform="translate(45,22)"/>
<path d="M0 0 C0.66 0 1.32 0 2 0 C2.33 1.98 2.66 3.96 3 6 C0.69 6 -1.62 6 -4 6 C-3.01 5.67 -2.02 5.34 -1 5 C-0.67 3.35 -0.34 1.7 0 0 Z " fill="#077B9F" transform="translate(31,49)"/>
<path d="M0 0 C0.66 0 1.32 0 2 0 C3.80230168 3.82989106 4.19622241 6.78121808 4 11 C1.6870518 8.6870518 1.50419025 7.52095125 0.875 4.375 C0.70742187 3.55773438 0.53984375 2.74046875 0.3671875 1.8984375 C0.24601563 1.27195313 0.12484375 0.64546875 0 0 Z " fill="#14556F" transform="translate(6,36)"/>
<path d="M0 0 C2.31 1.98 4.62 3.96 7 6 C6.01 6.33 5.02 6.66 4 7 C1.23609263 4.59660228 0.95934081 3.83736322 0 0 Z " fill="#42CFCB" transform="translate(38,15)"/>
<path d="M0 0 C0.33 0 0.66 0 1 0 C1.26218749 3.14624993 1.24754367 4.61837017 -0.5 7.3125 C-1.2425 8.1478125 -1.2425 8.1478125 -2 9 C-2.125 5.625 -2.125 5.625 -2 2 C-1.34 1.34 -0.68 0.68 0 0 Z " fill="#063554" transform="translate(26,40)"/>
<path d="M0 0 C2.02054804 1.64169528 4.02043058 3.30911778 6 5 C6 5.33 6 5.66 6 6 C4.35 6 2.7 6 1 6 C0.67 4.02 0.34 2.04 0 0 Z " fill="#40CFC9" transform="translate(32,9)"/>
<path d="M0 0 C0.99 0 1.98 0 3 0 C3 0.66 3 1.32 3 2 C2.01 1.67 1.02 1.34 0 1 C0 0.67 0 0.34 0 0 Z " fill="#0A0C18" transform="translate(44,0)"/>
</svg>
